<mxfile host="app.diagrams.net" modified="2023-02-08T11:27:31.058Z" agent="5.0 (Macintosh; Intel Mac OS X 10_15_7) AppleWebKit/537.36 (KHTML, like Gecko) Chrome/109.0.0.0 Safari/537.36" etag="aDkTQYQJo_JhFUkrLEDL" version="20.2.2" type="github">
  <diagram id="prtHgNgQTEPvFCAcTncT" name="Page-1">
    <mxGraphModel dx="1472" dy="597" grid="0" gridSize="10" guides="1" tooltips="1" connect="1" arrows="1" fold="1" page="0" pageScale="1" pageWidth="827" pageHeight="1169" math="0" shadow="0">
      <root>
        <mxCell id="0" />
        <mxCell id="1" parent="0" />
        <mxCell id="9ouBXQiiQA5_lNbKZjSu-2" value="" style="endArrow=blockThin;endFill=1;fontSize=11;edgeStyle=elbowEdgeStyle;elbow=vertical;rounded=0;" edge="1" parent="1">
          <mxGeometry relative="1" as="geometry">
            <mxPoint x="510" y="420" as="sourcePoint" />
            <mxPoint x="290" y="450" as="targetPoint" />
          </mxGeometry>
        </mxCell>
        <mxCell id="9ouBXQiiQA5_lNbKZjSu-6" value="" style="endArrow=blockThin;endFill=1;fontSize=11;edgeStyle=elbowEdgeStyle;elbow=vertical;rounded=0;" edge="1" parent="1">
          <mxGeometry relative="1" as="geometry">
            <mxPoint x="510" y="420" as="sourcePoint" />
            <mxPoint x="740" y="450" as="targetPoint" />
          </mxGeometry>
        </mxCell>
        <mxCell id="9ouBXQiiQA5_lNbKZjSu-8" value="(isCurrentUser?&#39;你&#39;:inviter.name) + &#39;邀请&#39; + `${invitee.company}的${invitee.name}`&amp;nbsp; + &#39;加入了项目&#39;" style="text;whiteSpace=wrap;html=1;fontSize=14;" vertex="1" parent="1">
          <mxGeometry x="200" y="373" width="621" height="40" as="geometry" />
        </mxCell>
        <mxCell id="9ouBXQiiQA5_lNbKZjSu-9" value="&lt;meta charset=&quot;utf-8&quot; style=&quot;font-size: 14px;&quot;&gt;&lt;span style=&quot;color: rgb(0, 0, 0); font-family: Helvetica; font-size: 14px; font-style: normal; font-variant-ligatures: normal; font-variant-caps: normal; font-weight: 400; letter-spacing: normal; orphans: 2; text-align: left; text-indent: 0px; text-transform: none; widows: 2; word-spacing: 0px; -webkit-text-stroke-width: 0px; background-color: rgb(248, 249, 250); text-decoration-thickness: initial; text-decoration-style: initial; text-decoration-color: initial; float: none; display: inline !important;&quot;&gt;(isCurrentUser?&#39;你&#39;:inviter.name) + &#39;邀请&#39; + `${invitee.company}的${invitee.name}`&lt;/span&gt;" style="text;whiteSpace=wrap;html=1;fontColor=#00CC66;fontSize=14;" vertex="1" parent="1">
          <mxGeometry x="50" y="453" width="530" height="40" as="geometry" />
        </mxCell>
        <mxCell id="9ouBXQiiQA5_lNbKZjSu-10" value="&lt;meta charset=&quot;utf-8&quot; style=&quot;font-size: 14px;&quot;&gt;&lt;span style=&quot;color: rgb(0, 0, 0); font-family: Helvetica; font-size: 14px; font-style: normal; font-variant-ligatures: normal; font-variant-caps: normal; font-weight: 400; letter-spacing: normal; orphans: 2; text-align: left; text-indent: 0px; text-transform: none; widows: 2; word-spacing: 0px; -webkit-text-stroke-width: 0px; background-color: rgb(248, 249, 250); text-decoration-thickness: initial; text-decoration-style: initial; text-decoration-color: initial; float: none; display: inline !important;&quot;&gt;&lt;span style=&quot;font-size: 14px;&quot;&gt;&amp;nbsp;&lt;/span&gt;&#39;加入了项目&#39;&lt;/span&gt;" style="text;whiteSpace=wrap;html=1;fontColor=#00CC66;fontSize=14;" vertex="1" parent="1">
          <mxGeometry x="704" y="453" width="100" height="40" as="geometry" />
        </mxCell>
        <mxCell id="9ouBXQiiQA5_lNbKZjSu-11" value="&lt;font color=&quot;#000000&quot;&gt;+&lt;/font&gt;" style="text;whiteSpace=wrap;html=1;fontColor=#00CC66;" vertex="1" parent="1">
          <mxGeometry x="505" y="429" width="100" height="40" as="geometry" />
        </mxCell>
        <mxCell id="9ouBXQiiQA5_lNbKZjSu-12" value="&lt;span style=&quot;color: rgb(42, 161, 152); font-family: monospace; font-size: 14px; font-style: normal; font-variant-ligatures: normal; font-variant-caps: normal; font-weight: 400; letter-spacing: normal; orphans: 2; text-align: left; text-indent: 0px; text-transform: none; widows: 2; word-spacing: 0px; -webkit-text-stroke-width: 0px; background-color: rgba(255, 240, 6, 0.4); text-decoration-thickness: initial; text-decoration-style: initial; text-decoration-color: initial; float: none; display: inline !important;&quot;&gt;String&lt;/span&gt;" style="text;whiteSpace=wrap;html=1;fontColor=#00CC66;" vertex="1" parent="1">
          <mxGeometry x="711" y="477" width="90" height="40" as="geometry" />
        </mxCell>
        <mxCell id="9ouBXQiiQA5_lNbKZjSu-13" value="" style="endArrow=blockThin;endFill=1;fontSize=11;edgeStyle=elbowEdgeStyle;elbow=vertical;rounded=0;entryX=0.5;entryY=0;entryDx=0;entryDy=0;" edge="1" parent="1">
          <mxGeometry relative="1" as="geometry">
            <mxPoint x="320" y="480" as="sourcePoint" />
            <mxPoint x="125" y="513" as="targetPoint" />
          </mxGeometry>
        </mxCell>
        <mxCell id="9ouBXQiiQA5_lNbKZjSu-14" value="" style="endArrow=blockThin;endFill=1;fontSize=11;edgeStyle=elbowEdgeStyle;elbow=vertical;rounded=0;" edge="1" parent="1">
          <mxGeometry relative="1" as="geometry">
            <mxPoint x="320" y="482" as="sourcePoint" />
            <mxPoint x="550" y="512" as="targetPoint" />
          </mxGeometry>
        </mxCell>
        <mxCell id="9ouBXQiiQA5_lNbKZjSu-15" value="&lt;font color=&quot;#000000&quot;&gt;+&lt;/font&gt;" style="text;whiteSpace=wrap;html=1;fontColor=#00CC66;" vertex="1" parent="1">
          <mxGeometry x="315" y="494" width="100" height="40" as="geometry" />
        </mxCell>
        <mxCell id="9ouBXQiiQA5_lNbKZjSu-16" value="&lt;meta charset=&quot;utf-8&quot; style=&quot;font-size: 14px;&quot;&gt;&lt;span style=&quot;color: rgb(0, 0, 0); font-family: Helvetica; font-size: 14px; font-style: normal; font-variant-ligatures: normal; font-variant-caps: normal; font-weight: 400; letter-spacing: normal; orphans: 2; text-align: left; text-indent: 0px; text-transform: none; widows: 2; word-spacing: 0px; -webkit-text-stroke-width: 0px; background-color: rgb(248, 249, 250); text-decoration-thickness: initial; text-decoration-style: initial; text-decoration-color: initial; float: none; display: inline !important;&quot;&gt;&lt;span style=&quot;font-size: 14px;&quot;&gt;&amp;nbsp;&lt;/span&gt;`${invitee.company}的${invitee.name}`&lt;/span&gt;" style="text;whiteSpace=wrap;html=1;fontColor=#00CC66;fontSize=14;" vertex="1" parent="1">
          <mxGeometry x="420" y="515" width="264" height="40" as="geometry" />
        </mxCell>
        <mxCell id="9ouBXQiiQA5_lNbKZjSu-17" value="&lt;span style=&quot;color: rgb(0, 0, 0); font-family: Helvetica; font-size: 14px; font-style: normal; font-variant-ligatures: normal; font-variant-caps: normal; font-weight: 400; letter-spacing: normal; orphans: 2; text-align: left; text-indent: 0px; text-transform: none; widows: 2; word-spacing: 0px; -webkit-text-stroke-width: 0px; background-color: rgb(248, 249, 250); text-decoration-thickness: initial; text-decoration-style: initial; text-decoration-color: initial; float: none; display: inline !important;&quot;&gt;(isCurrentUser?&#39;你&#39;:inviter.name) +&amp;nbsp;&lt;/span&gt;&lt;span style=&quot;color: rgb(0, 0, 0); font-size: 14px;&quot;&gt;&#39;邀请&#39;&lt;/span&gt;" style="text;whiteSpace=wrap;html=1;fontColor=#00CC66;fontSize=14;" vertex="1" parent="1">
          <mxGeometry x="-30" y="515" width="277" height="40" as="geometry" />
        </mxCell>
        <mxCell id="9ouBXQiiQA5_lNbKZjSu-18" value="" style="endArrow=blockThin;endFill=1;fontSize=11;edgeStyle=elbowEdgeStyle;elbow=vertical;rounded=0;entryX=0.5;entryY=0;entryDx=0;entryDy=0;" edge="1" parent="1" target="9ouBXQiiQA5_lNbKZjSu-21">
          <mxGeometry relative="1" as="geometry">
            <mxPoint x="100" y="540" as="sourcePoint" />
            <mxPoint x="-120" y="570" as="targetPoint" />
          </mxGeometry>
        </mxCell>
        <mxCell id="9ouBXQiiQA5_lNbKZjSu-19" value="" style="endArrow=blockThin;endFill=1;fontSize=11;edgeStyle=elbowEdgeStyle;elbow=vertical;rounded=0;" edge="1" parent="1">
          <mxGeometry relative="1" as="geometry">
            <mxPoint x="100" y="540" as="sourcePoint" />
            <mxPoint x="270" y="570" as="targetPoint" />
          </mxGeometry>
        </mxCell>
        <mxCell id="9ouBXQiiQA5_lNbKZjSu-20" value="&lt;meta charset=&quot;utf-8&quot; style=&quot;font-size: 14px;&quot;&gt;&lt;span style=&quot;font-family: Helvetica; font-size: 14px; font-style: normal; font-variant-ligatures: normal; font-variant-caps: normal; font-weight: 400; letter-spacing: normal; orphans: 2; text-align: left; text-indent: 0px; text-transform: none; widows: 2; word-spacing: 0px; -webkit-text-stroke-width: 0px; text-decoration-thickness: initial; text-decoration-style: initial; text-decoration-color: initial; color: rgb(0, 0, 0); background-color: rgb(248, 249, 250); float: none; display: inline !important;&quot;&gt;&amp;nbsp;&lt;/span&gt;&lt;span style=&quot;font-family: Helvetica; font-size: 14px; font-style: normal; font-variant-ligatures: normal; font-variant-caps: normal; font-weight: 400; letter-spacing: normal; orphans: 2; text-align: left; text-indent: 0px; text-transform: none; widows: 2; word-spacing: 0px; -webkit-text-stroke-width: 0px; background-color: rgb(248, 249, 250); text-decoration-thickness: initial; text-decoration-style: initial; text-decoration-color: initial; color: rgb(0, 0, 0);&quot;&gt;&#39;邀请&#39;&lt;/span&gt;" style="text;whiteSpace=wrap;html=1;fontColor=#00CC66;fontSize=14;" vertex="1" parent="1">
          <mxGeometry x="250" y="571" width="70" height="40" as="geometry" />
        </mxCell>
        <mxCell id="9ouBXQiiQA5_lNbKZjSu-21" value="&lt;meta charset=&quot;utf-8&quot; style=&quot;font-size: 14px;&quot;&gt;&lt;span style=&quot;color: rgb(0, 0, 0); font-family: Helvetica; font-size: 14px; font-style: normal; font-variant-ligatures: normal; font-variant-caps: normal; font-weight: 400; letter-spacing: normal; orphans: 2; text-align: left; text-indent: 0px; text-transform: none; widows: 2; word-spacing: 0px; -webkit-text-stroke-width: 0px; background-color: rgb(248, 249, 250); text-decoration-thickness: initial; text-decoration-style: initial; text-decoration-color: initial; float: none; display: inline !important;&quot;&gt;(isCurrentUser?&#39;你&#39;:inviter.name)&lt;span style=&quot;font-size: 14px;&quot;&gt;&amp;nbsp;&lt;/span&gt;&lt;/span&gt;" style="text;whiteSpace=wrap;html=1;fontColor=#00CC66;fontSize=14;" vertex="1" parent="1">
          <mxGeometry x="-144" y="570" width="210" height="40" as="geometry" />
        </mxCell>
        <mxCell id="9ouBXQiiQA5_lNbKZjSu-22" value="" style="endArrow=blockThin;endFill=1;fontSize=11;edgeStyle=elbowEdgeStyle;elbow=vertical;rounded=0;" edge="1" parent="1">
          <mxGeometry relative="1" as="geometry">
            <mxPoint x="560" y="541" as="sourcePoint" />
            <mxPoint x="380" y="571" as="targetPoint" />
            <Array as="points">
              <mxPoint x="350" y="556" />
              <mxPoint x="390" y="556" />
            </Array>
          </mxGeometry>
        </mxCell>
        <mxCell id="9ouBXQiiQA5_lNbKZjSu-23" value="" style="endArrow=blockThin;endFill=1;fontSize=11;edgeStyle=elbowEdgeStyle;elbow=vertical;rounded=0;" edge="1" parent="1">
          <mxGeometry relative="1" as="geometry">
            <mxPoint x="560" y="541" as="sourcePoint" />
            <mxPoint x="730" y="571" as="targetPoint" />
          </mxGeometry>
        </mxCell>
        <mxCell id="9ouBXQiiQA5_lNbKZjSu-30" value="" style="endArrow=none;html=1;rounded=0;fontColor=#00CC66;startArrow=classicThin;startFill=1;exitX=0.164;exitY=-0.014;exitDx=0;exitDy=0;exitPerimeter=0;" edge="1" parent="1" source="9ouBXQiiQA5_lNbKZjSu-32">
          <mxGeometry width="50" height="50" relative="1" as="geometry">
            <mxPoint x="560" y="566" as="sourcePoint" />
            <mxPoint x="560" y="556" as="targetPoint" />
          </mxGeometry>
        </mxCell>
        <mxCell id="9ouBXQiiQA5_lNbKZjSu-31" value="&lt;meta charset=&quot;utf-8&quot; style=&quot;font-size: 14px;&quot;&gt;&lt;span style=&quot;color: rgb(0, 0, 0); font-family: Helvetica; font-size: 14px; font-style: normal; font-variant-ligatures: normal; font-variant-caps: normal; font-weight: 400; letter-spacing: normal; orphans: 2; text-align: left; text-indent: 0px; text-transform: none; widows: 2; word-spacing: 0px; -webkit-text-stroke-width: 0px; background-color: rgb(248, 249, 250); text-decoration-thickness: initial; text-decoration-style: initial; text-decoration-color: initial; float: none; display: inline !important;&quot;&gt;invitee.company&lt;/span&gt;" style="text;whiteSpace=wrap;html=1;fontColor=#00CC66;fontSize=14;" vertex="1" parent="1">
          <mxGeometry x="340" y="573" width="120" height="40" as="geometry" />
        </mxCell>
        <mxCell id="9ouBXQiiQA5_lNbKZjSu-32" value="&lt;span style=&quot;color: rgb(0, 0, 0); font-family: Helvetica; font-size: 14px; font-style: normal; font-variant-ligatures: normal; font-variant-caps: normal; font-weight: 400; letter-spacing: normal; orphans: 2; text-align: left; text-indent: 0px; text-transform: none; widows: 2; word-spacing: 0px; -webkit-text-stroke-width: 0px; background-color: rgb(248, 249, 250); text-decoration-thickness: initial; text-decoration-style: initial; text-decoration-color: initial; float: none; display: inline !important;&quot;&gt;‘的’&lt;/span&gt;" style="text;whiteSpace=wrap;html=1;fontColor=#00CC66;fontSize=14;" vertex="1" parent="1">
          <mxGeometry x="552" y="574" width="50" height="40" as="geometry" />
        </mxCell>
        <mxCell id="9ouBXQiiQA5_lNbKZjSu-33" value="&lt;meta charset=&quot;utf-8&quot; style=&quot;font-size: 14px;&quot;&gt;&lt;span style=&quot;color: rgb(0, 0, 0); font-family: Helvetica; font-size: 14px; font-style: normal; font-variant-ligatures: normal; font-variant-caps: normal; font-weight: 400; letter-spacing: normal; orphans: 2; text-align: left; text-indent: 0px; text-transform: none; widows: 2; word-spacing: 0px; -webkit-text-stroke-width: 0px; background-color: rgb(248, 249, 250); text-decoration-thickness: initial; text-decoration-style: initial; text-decoration-color: initial; float: none; display: inline !important;&quot;&gt;invitee.name&lt;/span&gt;" style="text;whiteSpace=wrap;html=1;fontColor=#00CC66;fontSize=14;" vertex="1" parent="1">
          <mxGeometry x="694" y="572" width="100" height="40" as="geometry" />
        </mxCell>
        <mxCell id="9ouBXQiiQA5_lNbKZjSu-34" value="&lt;span style=&quot;color: rgb(42, 161, 152); font-family: monospace; font-size: 14px; font-style: normal; font-variant-ligatures: normal; font-variant-caps: normal; font-weight: 400; letter-spacing: normal; orphans: 2; text-align: left; text-indent: 0px; text-transform: none; widows: 2; word-spacing: 0px; -webkit-text-stroke-width: 0px; background-color: rgba(255, 240, 6, 0.4); text-decoration-thickness: initial; text-decoration-style: initial; text-decoration-color: initial; float: none; display: inline !important;&quot;&gt;String&lt;/span&gt;" style="text;whiteSpace=wrap;html=1;fontColor=#00CC66;" vertex="1" parent="1">
          <mxGeometry x="540" y="601" width="90" height="40" as="geometry" />
        </mxCell>
        <mxCell id="9ouBXQiiQA5_lNbKZjSu-35" value="&lt;span style=&quot;color: rgb(42, 161, 152); font-family: monospace; font-size: 14px; font-style: normal; font-variant-ligatures: normal; font-variant-caps: normal; font-weight: 400; letter-spacing: normal; orphans: 2; text-align: left; text-indent: 0px; text-transform: none; widows: 2; word-spacing: 0px; -webkit-text-stroke-width: 0px; background-color: rgba(255, 240, 6, 0.4); text-decoration-thickness: initial; text-decoration-style: initial; text-decoration-color: initial; float: none; display: inline !important;&quot;&gt;String&lt;/span&gt;" style="text;whiteSpace=wrap;html=1;fontColor=#00CC66;" vertex="1" parent="1">
          <mxGeometry x="247" y="600" width="90" height="40" as="geometry" />
        </mxCell>
        <mxCell id="9ouBXQiiQA5_lNbKZjSu-36" value="&lt;meta charset=&quot;utf-8&quot;&gt;&lt;span style=&quot;color: rgb(42, 161, 152); font-family: monospace; font-size: 14px; font-style: normal; font-variant-ligatures: normal; font-variant-caps: normal; font-weight: 400; letter-spacing: normal; orphans: 2; text-align: left; text-indent: 0px; text-transform: none; widows: 2; word-spacing: 0px; -webkit-text-stroke-width: 0px; background-color: rgb(239, 239, 239); text-decoration-thickness: initial; text-decoration-style: initial; text-decoration-color: initial; float: none; display: inline !important;&quot;&gt;ConditionalExpression&lt;/span&gt;" style="text;whiteSpace=wrap;html=1;fontColor=#00CC66;" vertex="1" parent="1">
          <mxGeometry x="-230" y="549" width="210" height="40" as="geometry" />
        </mxCell>
        <mxCell id="9ouBXQiiQA5_lNbKZjSu-37" value="&lt;meta charset=&quot;utf-8&quot;&gt;&lt;span style=&quot;color: rgb(42, 161, 152); font-family: monospace; font-size: 14px; font-style: normal; font-variant-ligatures: normal; font-variant-caps: normal; font-weight: 400; letter-spacing: normal; orphans: 2; text-align: left; text-indent: 0px; text-transform: none; widows: 2; word-spacing: 0px; -webkit-text-stroke-width: 0px; background-color: rgb(239, 239, 239); text-decoration-thickness: initial; text-decoration-style: initial; text-decoration-color: initial; float: none; display: inline !important;&quot;&gt;TemplateLiteral&lt;/span&gt;" style="text;whiteSpace=wrap;html=1;fontColor=#00CC66;" vertex="1" parent="1">
          <mxGeometry x="392" y="494" width="160" height="40" as="geometry" />
        </mxCell>
        <mxCell id="9ouBXQiiQA5_lNbKZjSu-38" value="&lt;meta charset=&quot;utf-8&quot;&gt;&lt;span style=&quot;color: rgb(42, 161, 152); font-family: monospace; font-size: 14px; font-style: normal; font-variant-ligatures: normal; font-variant-caps: normal; font-weight: 400; letter-spacing: normal; orphans: 2; text-align: left; text-indent: 0px; text-transform: none; widows: 2; word-spacing: 0px; -webkit-text-stroke-width: 0px; background-color: rgb(239, 239, 239); text-decoration-thickness: initial; text-decoration-style: initial; text-decoration-color: initial; float: none; display: inline !important;&quot;&gt;BinaryExpression&lt;/span&gt;" style="text;whiteSpace=wrap;html=1;fontColor=#00CC66;" vertex="1" parent="1">
          <mxGeometry x="-60" y="494" width="170" height="40" as="geometry" />
        </mxCell>
        <mxCell id="9ouBXQiiQA5_lNbKZjSu-39" value="&lt;meta charset=&quot;utf-8&quot;&gt;&lt;span style=&quot;color: rgb(42, 161, 152); font-family: monospace; font-size: 14px; font-style: normal; font-variant-ligatures: normal; font-variant-caps: normal; font-weight: 400; letter-spacing: normal; orphans: 2; text-align: left; text-indent: 0px; text-transform: none; widows: 2; word-spacing: 0px; -webkit-text-stroke-width: 0px; background-color: rgb(239, 239, 239); text-decoration-thickness: initial; text-decoration-style: initial; text-decoration-color: initial; float: none; display: inline !important;&quot;&gt;BinaryExpression&lt;/span&gt;" style="text;whiteSpace=wrap;html=1;fontColor=#00CC66;" vertex="1" parent="1">
          <mxGeometry x="100" y="429" width="170" height="40" as="geometry" />
        </mxCell>
        <mxCell id="9ouBXQiiQA5_lNbKZjSu-40" value="&lt;meta charset=&quot;utf-8&quot;&gt;&lt;span style=&quot;color: rgb(42, 161, 152); font-family: monospace; font-size: 14px; font-style: normal; font-variant-ligatures: normal; font-variant-caps: normal; font-weight: 400; letter-spacing: normal; orphans: 2; text-align: left; text-indent: 0px; text-transform: none; widows: 2; word-spacing: 0px; -webkit-text-stroke-width: 0px; background-color: rgb(239, 239, 239); text-decoration-thickness: initial; text-decoration-style: initial; text-decoration-color: initial; float: none; display: inline !important;&quot;&gt;BinaryExpression&lt;/span&gt;" style="text;whiteSpace=wrap;html=1;fontColor=#00CC66;" vertex="1" parent="1">
          <mxGeometry x="437" y="393" width="170" height="40" as="geometry" />
        </mxCell>
        <mxCell id="9ouBXQiiQA5_lNbKZjSu-41" value="&lt;font color=&quot;#000000&quot;&gt;+&lt;/font&gt;" style="text;whiteSpace=wrap;html=1;fontColor=#00CC66;" vertex="1" parent="1">
          <mxGeometry x="95" y="551" width="100" height="40" as="geometry" />
        </mxCell>
        <mxCell id="9ouBXQiiQA5_lNbKZjSu-42" value="" style="endArrow=blockThin;endFill=1;fontSize=11;edgeStyle=elbowEdgeStyle;elbow=vertical;rounded=0;entryX=0.5;entryY=0;entryDx=0;entryDy=0;" edge="1" parent="1">
          <mxGeometry relative="1" as="geometry">
            <mxPoint x="-59" y="600" as="sourcePoint" />
            <mxPoint x="-198" y="630" as="targetPoint" />
          </mxGeometry>
        </mxCell>
        <mxCell id="9ouBXQiiQA5_lNbKZjSu-43" value="" style="endArrow=blockThin;endFill=1;fontSize=11;edgeStyle=elbowEdgeStyle;elbow=vertical;rounded=0;" edge="1" parent="1">
          <mxGeometry relative="1" as="geometry">
            <mxPoint x="-59" y="600" as="sourcePoint" />
            <mxPoint x="111" y="630" as="targetPoint" />
          </mxGeometry>
        </mxCell>
        <mxCell id="9ouBXQiiQA5_lNbKZjSu-45" value="" style="endArrow=none;html=1;rounded=0;fontColor=#00CC66;startArrow=classicThin;startFill=1;exitX=0.164;exitY=-0.014;exitDx=0;exitDy=0;exitPerimeter=0;" edge="1" parent="1">
          <mxGeometry width="50" height="50" relative="1" as="geometry">
            <mxPoint x="-58.80000000000018" y="632.44" as="sourcePoint" />
            <mxPoint x="-58.99999999999977" y="615" as="targetPoint" />
          </mxGeometry>
        </mxCell>
        <mxCell id="9ouBXQiiQA5_lNbKZjSu-46" value="&lt;meta charset=&quot;utf-8&quot; style=&quot;font-size: 14px;&quot;&gt;&lt;span style=&quot;color: rgb(0, 0, 0); font-family: Helvetica; font-size: 14px; font-style: normal; font-variant-ligatures: normal; font-variant-caps: normal; font-weight: 400; letter-spacing: normal; orphans: 2; text-align: left; text-indent: 0px; text-transform: none; widows: 2; word-spacing: 0px; -webkit-text-stroke-width: 0px; background-color: rgb(248, 249, 250); text-decoration-thickness: initial; text-decoration-style: initial; text-decoration-color: initial; float: none; display: inline !important;&quot;&gt;&#39;你&#39;&lt;/span&gt;" style="text;whiteSpace=wrap;html=1;fontColor=#00CC66;fontSize=14;" vertex="1" parent="1">
          <mxGeometry x="-69" y="628" width="50" height="40" as="geometry" />
        </mxCell>
        <mxCell id="9ouBXQiiQA5_lNbKZjSu-47" value="&lt;meta charset=&quot;utf-8&quot; style=&quot;font-size: 14px;&quot;&gt;&lt;span style=&quot;color: rgb(0, 0, 0); font-family: Helvetica; font-size: 14px; font-style: normal; font-variant-ligatures: normal; font-variant-caps: normal; font-weight: 400; letter-spacing: normal; orphans: 2; text-align: left; text-indent: 0px; text-transform: none; widows: 2; word-spacing: 0px; -webkit-text-stroke-width: 0px; background-color: rgb(248, 249, 250); text-decoration-thickness: initial; text-decoration-style: initial; text-decoration-color: initial; float: none; display: inline !important;&quot;&gt;inviter.name&lt;/span&gt;" style="text;whiteSpace=wrap;html=1;fontColor=#00CC66;fontSize=14;" vertex="1" parent="1">
          <mxGeometry x="80" y="628" width="100" height="40" as="geometry" />
        </mxCell>
        <mxCell id="9ouBXQiiQA5_lNbKZjSu-48" value="&lt;meta charset=&quot;utf-8&quot; style=&quot;font-size: 14px;&quot;&gt;&lt;span style=&quot;color: rgb(0, 0, 0); font-family: Helvetica; font-size: 14px; font-style: normal; font-variant-ligatures: normal; font-variant-caps: normal; font-weight: 400; letter-spacing: normal; orphans: 2; text-align: left; text-indent: 0px; text-transform: none; widows: 2; word-spacing: 0px; -webkit-text-stroke-width: 0px; background-color: rgb(248, 249, 250); text-decoration-thickness: initial; text-decoration-style: initial; text-decoration-color: initial; float: none; display: inline !important;&quot;&gt;isCurrentUser&lt;/span&gt;" style="text;whiteSpace=wrap;html=1;fontColor=#00CC66;fontSize=14;" vertex="1" parent="1">
          <mxGeometry x="-240" y="628" width="110" height="40" as="geometry" />
        </mxCell>
        <mxCell id="9ouBXQiiQA5_lNbKZjSu-49" value="&lt;meta charset=&quot;utf-8&quot;&gt;&lt;span style=&quot;color: rgb(42, 161, 152); font-family: monospace; font-size: 14px; font-style: normal; font-variant-ligatures: normal; font-variant-caps: normal; font-weight: 400; letter-spacing: normal; orphans: 2; text-align: left; text-indent: 0px; text-transform: none; widows: 2; word-spacing: 0px; -webkit-text-stroke-width: 0px; background-color: rgba(255, 240, 6, 0.4); text-decoration-thickness: initial; text-decoration-style: initial; text-decoration-color: initial; float: none; display: inline !important;&quot;&gt;Identifier&lt;/span&gt;" style="text;whiteSpace=wrap;html=1;fontColor=#00CC66;" vertex="1" parent="1">
          <mxGeometry x="340" y="600" width="120" height="40" as="geometry" />
        </mxCell>
        <mxCell id="9ouBXQiiQA5_lNbKZjSu-50" value="&lt;meta charset=&quot;utf-8&quot;&gt;&lt;span style=&quot;color: rgb(42, 161, 152); font-family: monospace; font-size: 14px; font-style: normal; font-variant-ligatures: normal; font-variant-caps: normal; font-weight: 400; letter-spacing: normal; orphans: 2; text-align: left; text-indent: 0px; text-transform: none; widows: 2; word-spacing: 0px; -webkit-text-stroke-width: 0px; background-color: rgba(255, 240, 6, 0.4); text-decoration-thickness: initial; text-decoration-style: initial; text-decoration-color: initial; float: none; display: inline !important;&quot;&gt;Identifier&lt;/span&gt;" style="text;whiteSpace=wrap;html=1;fontColor=#00CC66;" vertex="1" parent="1">
          <mxGeometry x="692" y="601" width="120" height="40" as="geometry" />
        </mxCell>
        <mxCell id="9ouBXQiiQA5_lNbKZjSu-51" value="&lt;meta charset=&quot;utf-8&quot;&gt;&lt;span style=&quot;color: rgb(42, 161, 152); font-family: monospace; font-size: 14px; font-style: normal; font-variant-ligatures: normal; font-variant-caps: normal; font-weight: 400; letter-spacing: normal; orphans: 2; text-align: left; text-indent: 0px; text-transform: none; widows: 2; word-spacing: 0px; -webkit-text-stroke-width: 0px; background-color: rgba(255, 240, 6, 0.4); text-decoration-thickness: initial; text-decoration-style: initial; text-decoration-color: initial; float: none; display: inline !important;&quot;&gt;Identifier&lt;/span&gt;" style="text;whiteSpace=wrap;html=1;fontColor=#00CC66;" vertex="1" parent="1">
          <mxGeometry x="75" y="650" width="120" height="40" as="geometry" />
        </mxCell>
        <mxCell id="9ouBXQiiQA5_lNbKZjSu-52" value="&lt;meta charset=&quot;utf-8&quot;&gt;&lt;span style=&quot;color: rgb(42, 161, 152); font-family: monospace; font-size: 14px; font-style: normal; font-variant-ligatures: normal; font-variant-caps: normal; font-weight: 400; letter-spacing: normal; orphans: 2; text-align: left; text-indent: 0px; text-transform: none; widows: 2; word-spacing: 0px; -webkit-text-stroke-width: 0px; background-color: rgba(255, 240, 6, 0.4); text-decoration-thickness: initial; text-decoration-style: initial; text-decoration-color: initial; float: none; display: inline !important;&quot;&gt;Identifier&lt;/span&gt;" style="text;whiteSpace=wrap;html=1;fontColor=#00CC66;" vertex="1" parent="1">
          <mxGeometry x="-245" y="650" width="120" height="40" as="geometry" />
        </mxCell>
        <mxCell id="9ouBXQiiQA5_lNbKZjSu-53" value="&lt;span style=&quot;color: rgb(42, 161, 152); font-family: monospace; font-size: 14px; font-style: normal; font-variant-ligatures: normal; font-variant-caps: normal; font-weight: 400; letter-spacing: normal; orphans: 2; text-align: left; text-indent: 0px; text-transform: none; widows: 2; word-spacing: 0px; -webkit-text-stroke-width: 0px; background-color: rgba(255, 240, 6, 0.4); text-decoration-thickness: initial; text-decoration-style: initial; text-decoration-color: initial; float: none; display: inline !important;&quot;&gt;String&lt;/span&gt;" style="text;whiteSpace=wrap;html=1;fontColor=#00CC66;" vertex="1" parent="1">
          <mxGeometry x="-87" y="649" width="90" height="40" as="geometry" />
        </mxCell>
      </root>
    </mxGraphModel>
  </diagram>
</mxfile>
